M48
;DRILL file {KiCad 4.0.1-stable} date 5/23/2018 12:31:37 PM
;FORMAT={-:-/ absolute / metric / decimal}
FMAT,2
METRIC,TZ
T1C0.300
T2C1.000
T3C1.100
T4C1.200
T5C2.200
%
G90
G05
M71
T1
X116.205Y-114.935
X118.11Y-118.11
X120.015Y-93.98
X121.92Y-99.695
X121.92Y-112.395
X132.08Y-119.38
X132.715Y-106.68
X133.204Y-93.56
X133.985Y-99.06
X134.62Y-107.315
X135.255Y-102.235
X137.795Y-98.425
X137.795Y-106.045
X141.605Y-102.235
X142.44Y-105.69
X142.44Y-110.49
X143.51Y-106.68
X146.685Y-92.71
X151.13Y-107.95
X151.765Y-100.33
X152.349Y-102.819
X152.705Y-108.001
X153.035Y-100.33
X153.67Y-107.95
X156.21Y-100.965
X156.845Y-109.855
T2
X135.89Y-95.25
X138.43Y-95.25
X140.97Y-95.25
X143.51Y-95.25
X146.05Y-95.25
X148.59Y-95.25
T3
X116.84Y-100.41
X116.84Y-105.41
T4
X137.795Y-119.38
X140.335Y-119.38
X142.875Y-119.38
X145.415Y-119.38
X147.955Y-119.38
X150.495Y-119.38
T5
X115.57Y-94.615
X155.575Y-94.615
X155.575Y-119.38
T0
M30
