G04 #@! TF.FileFunction,Soldermask,Top*
%FSLAX46Y46*%
G04 Gerber Fmt 4.6, Leading zero omitted, Abs format (unit mm)*
G04 Created by KiCad (PCBNEW 4.0.1-stable) date 5/23/2018 12:30:50 PM*
%MOMM*%
G01*
G04 APERTURE LIST*
%ADD10C,0.100000*%
%ADD11R,1.700000X1.700000*%
%ADD12O,1.700000X1.700000*%
%ADD13C,2.200000*%
%ADD14R,2.000000X2.600000*%
%ADD15O,2.000000X2.600000*%
%ADD16C,1.950000*%
%ADD17R,0.550000X0.300000*%
%ADD18R,0.550000X0.250000*%
%ADD19R,1.500000X1.250000*%
%ADD20R,1.250000X1.500000*%
%ADD21R,2.150000X5.500000*%
%ADD22R,1.500000X1.300000*%
%ADD23R,1.200000X2.100000*%
%ADD24R,1.300000X1.500000*%
G04 APERTURE END LIST*
D10*
D11*
X148590000Y-95250000D03*
D12*
X146050000Y-95250000D03*
X143510000Y-95250000D03*
X140970000Y-95250000D03*
X138430000Y-95250000D03*
X135890000Y-95250000D03*
D13*
X155575000Y-119380000D03*
X155575000Y-94615000D03*
D14*
X137795000Y-119380000D03*
D15*
X140335000Y-119380000D03*
X142875000Y-119380000D03*
X145415000Y-119380000D03*
X147955000Y-119380000D03*
X150495000Y-119380000D03*
D16*
X116840000Y-105410000D03*
X116840000Y-100410000D03*
D17*
X135410000Y-99060000D03*
X135410000Y-99710000D03*
X135410000Y-100360000D03*
X137160000Y-100360000D03*
X137160000Y-99710000D03*
X137160000Y-99060000D03*
D18*
X135995000Y-104910000D03*
X133245000Y-104910000D03*
X133245000Y-105410000D03*
X133245000Y-105910000D03*
X135995000Y-105910000D03*
X135995000Y-105410000D03*
D19*
X142480000Y-111760000D03*
X144980000Y-111760000D03*
X142480000Y-114300000D03*
X144980000Y-114300000D03*
D20*
X123190000Y-96500000D03*
X123190000Y-94000000D03*
X125730000Y-96500000D03*
X125730000Y-94000000D03*
X128270000Y-96500000D03*
X128270000Y-94000000D03*
D19*
X150977600Y-106680000D03*
X153477600Y-106680000D03*
D21*
X124420000Y-104140000D03*
X128270000Y-104140000D03*
D22*
X134620000Y-116840000D03*
X131920000Y-116840000D03*
X142280000Y-106680000D03*
X144980000Y-106680000D03*
X142280000Y-109220000D03*
X144980000Y-109220000D03*
X150970000Y-109220000D03*
X153670000Y-109220000D03*
X142280000Y-104140000D03*
X144980000Y-104140000D03*
D23*
X115570000Y-121420000D03*
X118110000Y-121420000D03*
X125730000Y-121420000D03*
X123190000Y-121420000D03*
X115570000Y-109720000D03*
X118110000Y-109720000D03*
X125730000Y-109720000D03*
X123190000Y-109720000D03*
X120650000Y-109720000D03*
X120650000Y-121420000D03*
D24*
X130810000Y-96680000D03*
X130810000Y-93980000D03*
D22*
X131920000Y-114300000D03*
X134620000Y-114300000D03*
X150970000Y-104140000D03*
X153670000Y-104140000D03*
X150970000Y-101600000D03*
X153670000Y-101600000D03*
X131920000Y-109220000D03*
X134620000Y-109220000D03*
X132000000Y-111760000D03*
X134700000Y-111760000D03*
X150970000Y-111760000D03*
X153670000Y-111760000D03*
X150970000Y-114300000D03*
X153670000Y-114300000D03*
D13*
X115570000Y-94615000D03*
M02*
